# xmcd CD database file
#
# Track frame offsets:
#	183
#	27718
#	55170
#	70120
#	106038
#	141418
#	167838
#	212563
#	238060
#	259233
#
# Disc length: 4187 seconds
#
# Revision: 0
# Processed by: cddbd v1.4PL0 Copyright (c) Steve Scherf et al.
# Submitted via: Feurio! 1.65 - http://www.feurio.com
#
DISCID=9210590a
DTITLE=Groundhogs - No Surrender
DYEAR=1989
DGENRE=Blues
TTITLE0=Razor's Edge
TTITLE1=3744 James Road
TTITLE2=Superseded
TTITLE3=Light My Light
TTITLE4=One More Chance
TTITLE5=Garden
TTITLE6=Split Part 2
TTITLE7=Eccentric Man
TTITLE8=Strange Town
TTITLE9=Cherry Red
EXTD=ARD HTD Records HTD CD 2
EXTT0=
EXTT1=
EXTT2=
EXTT3=
EXTT4=
EXTT5=
EXTT6=
EXTT7=
EXTT8=
EXTT9=
PLAYORDER=
